<?xml version="1.0" encoding="utf-8"?>
<!-- Generator: Adobe Illustrator 24.1.3, SVG Export Plug-In . SVG Version: 6.00 Build 0)  -->
<svg version="1.1" id="Capa_1" xmlns="http://www.w3.org/2000/svg" xmlns:xlink="http://www.w3.org/1999/xlink" x="0px" y="0px"
	 viewBox="0 0 300 200" style="enable-background:new 0 0 300 200;" xml:space="preserve">
<style type="text/css">
	.st0{opacity:0.2;fill:#6264C7;enable-background:new    ;}
	.st1{opacity:0.17;}
	.st2{fill:#FBB13E;}
	.st3{opacity:0.09;}
	.st4{fill:#6264C7;}
	.st5{fill:#EF3F3F;}
	.st6{fill:#FF5353;}
	.st7{fill:#F2F4F3;}
	.st8{opacity:0.39;}
	.st9{fill:#606060;}
	.st10{fill:#EDEFEE;}
	.st11{fill:#E8EAE9;}
	.st12{fill:#552182;}
	.st13{fill:#652D90;}
	.st14{fill:#EF9B2B;}
	.st15{fill:#FCCAC3;}
	.st16{fill:#3D1C1C;}
	.st17{fill:#4E2727;}
	.st18{fill:#FEAF41;}
	.st19{fill:#F4A03B;}
	.st20{fill:#EFB5AF;}
	.st21{fill:#EF9830;}
	.st22{opacity:0.26;fill:#FF5353;enable-background:new    ;}
	.st23{fill:#40156D;}
	.st24{fill:none;}
	.st25{fill:#F25116;}
	.st26{font-family:'CenturyGothic';}
	.st27{font-size:17.0403px;}
</style>
<g>
	<g>
		<ellipse class="st0" cx="141.15" cy="182.14" rx="92.63" ry="7.05"/>
		<g>
			<g class="st1">
				<path class="st2" d="M160.48,174.05c12.55,5.45,27.4,2.35,40.63-1.52c12.43-3.63,24.87-7.99,35.13-15.38
					c22.48-16.17,30.77-44.81,26.98-70.7c-2.92-19.96-12.79-39.7-30.25-52s-43.1-15.72-62.04-5.38
					c-10.46,5.71-18.95,15.29-30.97,17.12c-5.94,0.91-11.99-0.24-17.96-0.96c-13.38-1.61-27.24-1.04-39.94,3.11
					S57.9,60.39,51.38,71.17c-4.1,6.77-6.15,14.46-6.98,22.16c-1.14,10.69,0.03,21.57,3.35,31.89c4.47,13.88,13.5,27.28,27.6,33.91
					c12.92,6.08,28.23,5.75,42.7,4.51"/>
			</g>
			<g class="st1">
				<path class="st2" d="M110.63,36.02c9.99,7.4,29.28,3.23,38.1-1.46c3.85-2.05,7.32-4.97,9-8.74c1.7-3.77,1.33-8.44-1.62-11.5
					c-3.91-4.07-10.96-4.16-16.5-2.28c-5.55,1.88-10.31,5.33-15.69,7.57c-2.74,1.14-5.63,1.96-8.29,3.24
					c-2.67,1.27-5.16,3.08-6.39,5.59C108,30.96,108.36,34.23,110.63,36.02"/>
			</g>
		</g>
		<g>
			<g class="st3">
				<g>
					<path class="st4" d="M167.24,181.8l-0.03-0.01c-0.01-0.01-0.01-0.03-0.04-0.04l-1.93-0.83l-0.04-2.27l-0.19-8.91l1.28-0.04
						c0.31-0.01,0.5-1.31,0.19-1.38h-0.01c-0.01-0.01-0.04-0.03-0.07-0.03l-19.29-4.49c-0.65-0.14-1.31-0.22-1.98-0.22l-0.5-11.89
						c0.01-0.12-0.04-0.24-0.21-0.28l-5.74-1.33l14.35-0.56c0.16,0,0.27-0.66,0.22-1.04c0.37,0.05,0.75,0.03,1.11-0.07
						c0.71-0.17,1.34-0.5,2.04-0.71c1.96-0.56,4.09,0,6.12-0.28c0.63-0.08,1.25-0.25,1.84-0.47c0.34-0.13,0.53-0.22,0.8-0.46
						c0.31-0.29,0.43-0.71,0.21-0.91c-0.77-0.71-5.46-0.89-6.55-0.8c-1.33-0.63-4.01-2.22-5.13-2.89c0.03-0.03,0.04-0.07,0.03-0.08
						c-0.93-1.25-1.84-2.51-2.76-3.75l-0.04-1.89l1.28-0.04c0.31-0.01,0.5-1.31,0.19-1.38h-0.01c-0.01-0.01-0.04-0.03-0.07-0.03
						l-4.47-1.04c-4.45-6.3-8.81-12.45-14.1-17.87c-0.72-0.73-1.47-1.48-2.46-1.92c-1.4-0.62-3.05-0.5-4.6-0.29
						c-1.15,0.16-3.78,0.46-4.91,0.71c-4.44,0.76-7.86,1.08-11.36,1.63c-0.12-0.47-0.21-0.97-0.29-1.44
						c-0.01-0.09-0.04-0.18-0.07-0.26c0.37-0.17,0.71-0.38,1.02-0.63c0.07-0.01,0.15-0.03,0.22-0.05c0.09,0.04,0.18,0.08,0.27,0.1
						c1.53,0.55,3.35,0.34,4.76-0.43c1.42-0.77,2.46-2.05,3.02-3.46c0.24-0.6,0.4-1.23,0.4-1.88c0-0.76-0.21-1.51-0.43-2.26
						c-0.74-2.48-1.64-4.92-2.65-7.31l0.59-0.25c0.19-0.08,0.31-0.24,0.34-0.43l1.8-12.55c0.01-0.13-0.12-0.22-0.25-0.18L118.95,85
						l-0.59-0.22l-6.48,2.34l-8.55-1.9c0.01-0.09,0.01-0.17,0.03-0.26c0.06-0.01,0.12-0.03,0.18-0.04c0.44-0.14,0.84-0.41,1.19-0.7
						c1.36-1.13,2.05-2.74,2.54-4.37v0.01c1.3-2.18,1.64-5.85,0.58-8.12c-0.65-1.38-1.9-2.74-3.82-3.28
						c0.01-0.21,0.01-0.42,0.01-0.62c-0.01-0.39-0.09-0.77-0.19-1.15c-0.37-1.3-1.21-2.48-2.39-3.28c-1.52-1.04-3.51-1.46-5.38-1.15
						c-0.77,0.12-1.52,0.37-2.17,0.77c-1.06,0.68-1.73,1.8-1.93,2.98c-0.04,0.26-0.07,0.54-0.07,0.8c0,1.46,0.66,2.87,1.64,4.02
						c0.16,0.18,0.34,0.35,0.52,0.54c-0.07,0.12-0.15,0.22-0.22,0.34c-0.38,0.67-0.62,1.4-0.71,2.17v0.01
						c-0.41,1.68-0.04,3.23,0.5,4.87c0.55,1.63,2.32,3.54,4.06,4.2c0.24,0.84,0.4,1.71,0.43,2.55c0.04,1.04-0.25,2.13-0.66,3.18
						c-0.46,0.14-1.71,0.56-2.4,0.89l0,0c-0.66,0.16-1.42,0.39-2.32,0.73l0,0c-1.46-0.22-2.68,0.3-3.63,1.27
						c-0.94,0.97-1.71,3.42-2.17,4.62c-1.98,5.31-2.83,11.01-1.99,16.52c0.12,0.79,0.31,1.61,0.87,2.26
						c0.71,0.81,1.93,1.21,3.13,1.29c1.02,0.05,2.04-0.09,3.02-0.28c-0.55,1.99-0.88,4.04-0.74,6.09c0.25,3.32,1.05,6.59,4.25,8.19
						c0.13,0.07,0.28,0.12,0.41,0.18l-50.34,0.51c-0.25,0-0.38,0.2-0.38,0.38l0,0v0.24c-0.06,0.22-0.06,0.5-0.01,0.71l-0.12,10.84
						c0,0.08,0,0.14,0,0.22v0.05l0,0c0.03,0.41,0.18,0.79,0.43,0.89l7.82,3.18l-15.63,0.16c-0.06,0-0.12,0.01-0.16,0.04l0,0
						c-0.44,0-0.34,1.64,0.07,1.77l1.14,0.34l0.38,8.39l-1.49,0.08c-0.27,0.01-0.44,0.18-0.5,0.38c-0.22,0.5-0.09,1.52,0.34,1.69
						l20.38,8.29c0.37,0.16,0.77,0.25,1.17,0.3v0.07l0.22-0.01l-0.09,7.68c0,0.08,0,0.14,0,0.22v0.05l0,0
						c0.03,0.41,0.18,0.79,0.43,0.89l20.38,8.29c0.62,0.25,1.31,0.37,1.99,0.34l85.22-3.36
						C167.33,183.06,167.43,181.89,167.24,181.8z M125.57,127.48c0.29,0.26,0.27,0.7,0.21,1.08c-0.07,0.51-0.12,1.04-0.15,1.55
						l-13.36,0.13c2.67-0.42,4.79-1.22,4.79-1.22c2.35-1.04,4.93-1.64,7.54-1.75C124.94,127.25,125.32,127.27,125.57,127.48z
						 M151.78,146.99c0.06,0.26,0.15,0.54,0.29,0.77l-0.91-0.39l-0.04-2.27l-0.01-0.72c0.22,0.37,0.38,0.66,0.41,0.72
						C151.49,145.49,151.69,146.63,151.78,146.99z M136.23,131.02l-3.22-0.75c-0.01,0-0.03,0-0.03-0.01
						c-0.03-0.18-0.04-0.35-0.07-0.54c-0.21-1.36-0.43-2.76-0.86-4.07c0.27,0.45,0.53,0.88,0.8,1.3
						C133.79,128.43,134.95,129.77,136.23,131.02z"/>
				</g>
			</g>
			<g>
				<g>
					<g>
						<g>
							<path class="st5" d="M65.89,177.04l20.38,8.29c0.62,0.25,1.31,0.37,1.99,0.34l85.22-3.36c0.21-0.01,0.32-1.19,0.13-1.27
								l-24.85-9.75l-82.86,3.87C65.3,175.19,65.35,176.82,65.89,177.04z"/>
							<path class="st6" d="M65.88,176.08l20.38,8.29c0.62,0.25,1.31,0.37,1.99,0.34l85.22-3.36c0.21-0.01,0.27-0.29,0.07-0.37
								l-24.81-10.66l-82.67,4.72C65.47,175.1,65.33,175.86,65.88,176.08z"/>
						</g>
						<polygon class="st7" points="87.04,170.48 66.96,164.28 66.96,175.66 87.52,183.98 						"/>
						<g>
							<g class="st8">
								<path class="st9" d="M82.69,173.31c-0.41-0.12-0.81-0.24-1.22-0.35c-0.97-0.29-1.96-0.56-2.94-0.85
									c-1.18-0.34-2.36-0.68-3.54-1.02c-1.02-0.29-2.04-0.59-3.05-0.88c-0.5-0.14-1-0.28-1.49-0.43h-0.01
									c-0.1-0.03-0.06-0.18,0.04-0.16c0.41,0.12,0.81,0.24,1.22,0.35c0.97,0.29,1.96,0.56,2.94,0.85
									c1.18,0.34,2.36,0.68,3.54,1.02c1.02,0.29,2.04,0.59,3.05,0.88c0.5,0.14,1,0.28,1.49,0.43h0.01
									C82.86,173.19,82.81,173.35,82.69,173.31L82.69,173.31z"/>
							</g>
							<g class="st8">
								<path class="st9" d="M82,178.55c-0.41-0.12-0.81-0.28-1.21-0.42c-0.88-0.31-1.77-0.62-2.65-0.93
									c-1.05-0.37-2.09-0.73-3.14-1.12c-0.9-0.31-1.8-0.64-2.68-0.96c-0.43-0.16-0.87-0.3-1.31-0.46c0,0-0.01,0-0.01-0.01
									c-0.1-0.04-0.06-0.2,0.04-0.16c0.35,0.13,0.71,0.25,1.08,0.38c0.86,0.3,1.73,0.62,2.58,0.92c1.05,0.37,2.09,0.73,3.13,1.12
									c0.91,0.33,1.83,0.64,2.76,0.97c0.47,0.17,0.96,0.34,1.43,0.5c0.01,0,0.03,0.01,0.04,0.01
									C82.16,178.43,82.12,178.59,82,178.55L82,178.55z"/>
							</g>
						</g>
						<g>
							<path class="st10" d="M87.9,170.45l83.44-3.21l0.22,10.67C104.66,184.32,90.75,175.08,87.9,170.45z"/>
							<path class="st11" d="M87.9,170.45c2.85,4.65,16.76,13.87,83.66,7.44l0.06,2.85l-84.1,3.24l-0.47-13.5L87.9,170.45z"/>
						</g>
						<g>
							<path class="st5" d="M172.67,168.94L87,171.4c-0.66,0.01-1.34-0.07-1.98-0.26l-19.2-5.83c-0.41-0.13-0.31-1.42,0.13-1.42
								l85.41-0.14c0.69-0.01,1.39,0.07,2.06,0.22l19.43,3.6C173.15,167.63,172.98,168.93,172.67,168.94z"/>
							<path class="st6" d="M172.71,168.02l-85.67,2.45c-0.66,0.01-1.34-0.07-1.98-0.26l-19.2-5.83c-0.41-0.13-0.32-0.68,0.12-0.7
								l85.41-0.88c0.69-0.01,1.39,0.07,2.06,0.22l19.29,4.49C173.08,167.6,173.02,168.01,172.71,168.02z"/>
						</g>
						<g>
							<g class="st8">
								<path class="st9" d="M147.15,176.55c-0.4,0.01-0.81,0.03-1.21,0.04c-1.09,0.04-2.17,0.08-3.26,0.12
									c-1.62,0.07-3.23,0.12-4.85,0.18c-1.96,0.07-3.92,0.14-5.87,0.21c-2.15,0.08-4.32,0.16-6.48,0.24
									c-2.17,0.08-4.34,0.16-6.49,0.24c-2.04,0.08-4.07,0.14-6.09,0.22c-1.71,0.07-3.41,0.13-5.12,0.18
									c-1.24,0.04-2.48,0.09-3.7,0.13c-0.58,0.03-1.17,0.05-1.74,0.07c-0.03,0-0.04,0-0.07,0c-0.12,0-0.12-0.16,0-0.16
									c0.4-0.01,0.81-0.03,1.21-0.04c1.09-0.04,2.17-0.08,3.26-0.12c1.62-0.07,3.23-0.12,4.85-0.18c1.96-0.07,3.92-0.14,5.87-0.21
									c2.15-0.08,4.32-0.16,6.48-0.24c2.17-0.08,4.34-0.16,6.49-0.24c2.04-0.08,4.07-0.14,6.09-0.22
									c1.71-0.07,3.41-0.13,5.12-0.18c1.24-0.04,2.48-0.09,3.7-0.13c0.58-0.03,1.17-0.05,1.74-0.07c0.03,0,0.04,0,0.07,0
									C147.25,176.4,147.27,176.55,147.15,176.55L147.15,176.55z"/>
							</g>
							<g class="st8">
								<path class="st9" d="M163.17,172.73c-0.63,0.01-1.25,0.04-1.89,0.05c-1.7,0.04-3.39,0.09-5.09,0.13
									c-2.52,0.07-5.04,0.13-7.58,0.21c-3.05,0.08-6.12,0.17-9.17,0.25c-3.38,0.09-6.76,0.18-10.12,0.28
									c-3.38,0.09-6.77,0.18-10.15,0.28c-3.17,0.09-6.36,0.17-9.53,0.26c-2.67,0.07-5.32,0.14-7.99,0.21
									c-1.93,0.05-3.86,0.1-5.8,0.16c-0.91,0.03-1.81,0.07-2.73,0.08c-0.04,0-0.07,0-0.12,0c-0.12,0-0.12-0.16,0-0.16
									c0.63-0.01,1.25-0.04,1.89-0.05c1.7-0.04,3.39-0.09,5.09-0.13c2.52-0.07,5.04-0.13,7.58-0.21c3.05-0.08,6.12-0.17,9.17-0.25
									c3.38-0.09,6.76-0.18,10.12-0.28c3.38-0.09,6.77-0.18,10.15-0.28c3.17-0.09,6.36-0.17,9.53-0.26
									c2.67-0.07,5.32-0.14,7.99-0.21c1.93-0.05,3.86-0.1,5.8-0.16c0.91-0.03,1.81-0.07,2.73-0.08c0.04,0,0.07,0,0.12,0
									C163.27,172.56,163.28,172.73,163.17,172.73L163.17,172.73z"/>
							</g>
						</g>
					</g>
					<g>
						<g>
							<path class="st12" d="M43.78,159.53l20.38,8.29c0.62,0.25,1.31,0.37,1.99,0.34l85.22-3.36c0.21-0.01,0.27-0.29,0.07-0.37
								l-24.81-10.66l-82.89,3.79C43.18,157.62,43.24,159.31,43.78,159.53z"/>
							<path class="st13" d="M43.77,158.48l20.38,8.29c0.62,0.25,1.31,0.37,1.99,0.34l85.22-3.36c0.21-0.01,0.27-0.29,0.07-0.37
								l-24.81-10.66l-82.67,4.72C43.37,157.49,43.22,158.26,43.77,158.48z"/>
						</g>
						<g>
							<path class="st7" d="M45.01,147.74l-0.01-0.31l20.09,6.19l0.43,12.18C50.44,161.27,46.2,152.42,45.01,147.74z"/>
							<path class="st11" d="M65.5,165.79l0.04,1.33l-20.02-7.99l-0.53-11.39C46.2,152.42,50.44,161.27,65.5,165.79z"/>
						</g>
						<g>
							<g class="st8">
								<path class="st9" d="M59.49,156.91c-0.41-0.12-0.81-0.24-1.22-0.35c-0.97-0.29-1.96-0.56-2.94-0.85
									c-1.18-0.34-2.36-0.68-3.54-1.02c-1.02-0.29-2.04-0.59-3.05-0.88c-0.5-0.14-1-0.28-1.49-0.43h-0.01
									c-0.1-0.03-0.06-0.18,0.04-0.16c0.41,0.12,0.81,0.24,1.22,0.35c0.97,0.29,1.96,0.56,2.94,0.85
									c1.18,0.34,2.36,0.68,3.54,1.02c1.02,0.29,2.04,0.59,3.05,0.88c0.5,0.14,1,0.28,1.49,0.43h0.01
									C59.64,156.78,59.6,156.94,59.49,156.91L59.49,156.91z"/>
							</g>
							<g class="st8">
								<path class="st9" d="M60.81,162.24c-0.41-0.12-0.81-0.28-1.21-0.42c-0.88-0.31-1.77-0.62-2.65-0.93
									c-1.05-0.37-2.09-0.73-3.14-1.12c-0.9-0.31-1.8-0.64-2.68-0.96c-0.43-0.16-0.87-0.3-1.31-0.46c0,0-0.01,0-0.01-0.01
									c-0.1-0.04-0.06-0.2,0.04-0.16c0.35,0.13,0.71,0.25,1.08,0.38c0.86,0.3,1.73,0.62,2.58,0.92c1.05,0.37,2.09,0.73,3.13,1.12
									c0.91,0.33,1.83,0.64,2.76,0.97c0.47,0.17,0.96,0.34,1.43,0.5c0.01,0,0.03,0.01,0.04,0.01
									C60.97,162.11,60.92,162.26,60.81,162.24L60.81,162.24z"/>
							</g>
						</g>
						<g>
							<polygon class="st12" points="151,150.86 151.59,164.81 65.33,168.18 64.39,153.63 							"/>
							<polygon class="st13" points="74.01,165.18 147.24,162.39 147.08,154.72 73.45,155.99 							"/>
						</g>
						<g>
							<path class="st12" d="M150.76,152.26l-85.67,2.45c-0.66,0.01-1.34-0.07-1.98-0.26l-19.2-5.83c-0.41-0.13-0.52-1.77-0.07-1.77
								l85.62,0.2c0.69-0.01,1.39,0.07,2.06,0.22l19.29,4.49C151.13,151.84,151.07,152.26,150.76,152.26z"/>
							<path class="st13" d="M150.73,151.16l-85.67,2.45c-0.66,0.01-1.34-0.07-1.98-0.26l-19.2-5.83c-0.41-0.13-0.32-0.68,0.12-0.7
								l85.41-0.88c0.69-0.01,1.39,0.07,2.06,0.22l19.29,4.49C151.1,150.74,151.06,151.15,150.73,151.16z"/>
						</g>
					</g>
					<g>
						<polyline class="st14" points="51.54,130.53 51.41,142.59 55.36,143.51 54.52,131.06 						"/>
						<g>
							<path class="st14" d="M51.84,143.5l20.38,8.29c0.62,0.25,1.31,0.37,1.99,0.34l85.22-3.36c0.21-0.01,0.32-1.19,0.13-1.27
								l-24.85-9.75l-82.86,3.87C51.23,141.65,51.29,143.27,51.84,143.5z"/>
							<path class="st2" d="M51.81,142.54l20.38,8.29c0.62,0.25,1.31,0.37,1.99,0.34l85.22-3.36c0.21-0.01,0.27-0.29,0.07-0.37
								l-24.81-10.66L52,141.52C51.41,141.56,51.26,142.32,51.81,142.54z"/>
						</g>
						<polygon class="st7" points="72.99,136.94 52.9,130.74 52.88,142.11 73.45,150.44 						"/>
						<g>
							<g class="st8">
								<path class="st9" d="M68.64,139.77c-0.41-0.12-0.81-0.24-1.22-0.35c-0.97-0.29-1.96-0.56-2.94-0.85
									c-1.18-0.34-2.36-0.68-3.54-1.02c-1.02-0.29-2.04-0.59-3.05-0.88c-0.5-0.14-1-0.28-1.49-0.43h-0.01
									c-0.1-0.03-0.06-0.18,0.04-0.16c0.41,0.12,0.81,0.24,1.22,0.35c0.97,0.29,1.96,0.56,2.94,0.85
									c1.18,0.34,2.36,0.68,3.54,1.02c1.02,0.29,2.04,0.59,3.05,0.88c0.5,0.14,1,0.28,1.49,0.43h0.01
									C68.78,139.64,68.74,139.8,68.64,139.77L68.64,139.77z"/>
							</g>
							<g class="st8">
								<path class="st9" d="M67.94,145.01c-0.41-0.12-0.81-0.28-1.21-0.42c-0.88-0.31-1.77-0.62-2.65-0.93
									c-1.05-0.37-2.09-0.73-3.14-1.12c-0.9-0.31-1.8-0.64-2.68-0.96c-0.43-0.16-0.87-0.3-1.31-0.46c0,0-0.01,0-0.01-0.01
									c-0.1-0.04-0.06-0.2,0.04-0.16c0.35,0.13,0.71,0.25,1.08,0.38c0.86,0.3,1.73,0.62,2.58,0.92c1.05,0.37,2.09,0.73,3.13,1.12
									c0.91,0.33,1.83,0.64,2.76,0.97c0.47,0.17,0.96,0.34,1.43,0.5c0.01,0,0.03,0.01,0.04,0.01
									C68.09,144.88,68.05,145.05,67.94,145.01L67.94,145.01z"/>
							</g>
						</g>
						<g>
							<path class="st10" d="M73.84,136.9l83.44-3.21l0.22,10.67C90.58,150.78,76.69,141.54,73.84,136.9z"/>
							<path class="st11" d="M73.84,136.9c2.85,4.65,16.76,13.87,83.66,7.44l0.06,2.85l-84.1,3.24l-0.47-13.5L73.84,136.9z"/>
						</g>
						<g>
							<path class="st14" d="M158.59,135.4l-85.67,2.45c-0.66,0.01-1.34-0.07-1.98-0.26l-19.2-5.83c-0.41-0.13-0.31-1.42,0.13-1.42
								l85.41-0.14c0.69-0.01,1.39,0.07,2.06,0.22l19.43,3.6C159.1,134.09,158.9,135.39,158.59,135.4z"/>
							<path class="st2" d="M158.64,134.48l-85.67,2.45c-0.66,0.01-1.34-0.07-1.98-0.26l-19.2-5.83c-0.41-0.13-0.32-0.68,0.12-0.7
								l85.41-0.88c0.69-0.01,1.39,0.07,2.06,0.22l19.29,4.49C159.01,134.06,158.96,134.47,158.64,134.48z"/>
						</g>
						<g>
							<g class="st8">
								<path class="st9" d="M133.08,143.01c-0.4,0.01-0.81,0.03-1.21,0.04c-1.09,0.04-2.17,0.08-3.26,0.12
									c-1.62,0.07-3.23,0.12-4.85,0.18c-1.96,0.07-3.92,0.14-5.87,0.21c-2.15,0.08-4.32,0.16-6.48,0.24
									c-2.17,0.08-4.34,0.16-6.49,0.24c-2.04,0.08-4.07,0.14-6.09,0.22c-1.71,0.07-3.41,0.13-5.12,0.18
									c-1.24,0.04-2.48,0.09-3.7,0.13c-0.58,0.03-1.17,0.05-1.74,0.07c-0.03,0-0.04,0-0.07,0c-0.12,0-0.12-0.16,0-0.16
									c0.4-0.01,0.81-0.03,1.21-0.04c1.09-0.04,2.17-0.08,3.26-0.12c1.62-0.07,3.23-0.12,4.85-0.18c1.96-0.07,3.92-0.14,5.87-0.21
									c2.15-0.08,4.32-0.16,6.48-0.24c2.17-0.08,4.34-0.16,6.49-0.24c2.04-0.08,4.07-0.14,6.09-0.22
									c1.71-0.07,3.41-0.13,5.12-0.18c1.24-0.04,2.48-0.09,3.7-0.13c0.58-0.03,1.17-0.05,1.74-0.07c0.03,0,0.04,0,0.07,0
									C133.2,142.85,133.2,143.01,133.08,143.01L133.08,143.01z"/>
							</g>
							<g class="st8">
								<path class="st9" d="M149.1,139.19c-0.63,0.01-1.25,0.04-1.89,0.05c-1.7,0.04-3.39,0.09-5.09,0.13
									c-2.52,0.07-5.04,0.13-7.58,0.21c-3.05,0.08-6.12,0.17-9.17,0.25c-3.38,0.09-6.76,0.18-10.12,0.28
									c-3.38,0.09-6.77,0.18-10.15,0.28c-3.17,0.09-6.36,0.17-9.53,0.26c-2.67,0.07-5.32,0.14-7.99,0.21
									c-1.93,0.05-3.86,0.1-5.8,0.16c-0.91,0.03-1.81,0.07-2.73,0.08c-0.04,0-0.07,0-0.12,0c-0.12,0-0.12-0.16,0-0.16
									c0.63-0.01,1.25-0.04,1.89-0.05c1.7-0.04,3.39-0.09,5.09-0.13c2.52-0.07,5.04-0.13,7.58-0.21c3.05-0.08,6.12-0.17,9.17-0.25
									c3.38-0.09,6.76-0.18,10.12-0.28c3.38-0.09,6.77-0.18,10.15-0.28c3.17-0.09,6.36-0.17,9.53-0.26
									c2.67-0.07,5.32-0.14,7.99-0.21c1.93-0.05,3.86-0.1,5.8-0.16c0.91-0.03,1.81-0.07,2.73-0.08c0.04,0,0.07,0,0.12,0
									C149.21,139.02,149.21,139.18,149.1,139.19L149.1,139.19z"/>
							</g>
						</g>
					</g>
				</g>
				<g>
					<path class="st14" d="M100.38,130.03h-8.69c0,0-2.12,0.08-2.21,0.98c-0.09,0.89,3.16,2.2,24.85,0.84c0,0,10.58-1.01-2.92-2.27"
						/>
					<g>
						<g>
							<g>
								<g>
									<path class="st15" d="M136.1,150.64c0.07,0.26,0.12,1.9,0.01,2.15c-0.25,0.63-0.47,1.04-0.65,1.69
										c-0.1,0.42-0.19,0.85-0.09,1.27c0.18,0.73,0.91,1.25,1.68,1.52c0.77,0.29,1.59,0.39,2.35,0.7
										c1.96,0.79,3.19,2.69,5.15,3.45c0.56,0.22,1.18,0.34,1.78,0.24c0.09-0.01,0.19-0.04,0.27-0.09
										c0.15-0.12,0.12-0.34,0.03-0.51c-0.24-0.45-0.74-0.68-1.18-0.96c-1.11-0.68-1.96-1.67-2.61-2.73
										c-0.65-1.06-1.71-4.05-2.15-5.21"/>
								</g>
								<g>
									<path class="st16" d="M142.61,156.95c-3.45-1.18-4.66-1.39-6.48-4.16c-0.28,0.31-0.93,1.4-1.14,1.77
										c-0.22,0.39-0.38,0.84-0.32,1.27c0.1,0.71,0.78,1.25,1.5,1.54s1.52,0.38,2.26,0.63c2.08,0.7,3.51,2.48,5.44,3.46
										c0.6,0.31,1.25,0.54,1.92,0.71c0.4,0.09,0.62,0.13,1.02,0.09c0.49-0.05,0.88-0.35,0.84-0.66
										C147.49,160.53,143.59,157.53,142.61,156.95"/>
								</g>
							</g>
							<g>
								<g>
									<path class="st15" d="M153.43,141.42c0.21,0.16,1.77,2.69,1.86,2.94c0.21,0.59,0.29,1,0.58,1.56
										c0.18,0.37,0.38,0.73,0.72,0.98c0.59,0.43,1.45,0.43,2.17,0.25c0.74-0.18,1.4-0.52,2.14-0.7c1.92-0.45,4,0.31,5.9-0.14
										c0.55-0.13,1.08-0.37,1.45-0.75c0.06-0.07,0.12-0.13,0.13-0.21c0.03-0.17-0.13-0.31-0.29-0.39
										c-0.44-0.2-0.97-0.12-1.46-0.09c-1.24,0.08-2.46-0.2-3.6-0.64c-1.14-0.45-4.75-2.59-5.78-3.2"/>
								</g>
								<g>
									<path class="st16" d="M162.61,144.04c-3.24,0.92-4.26,1.39-7.32,0.31c-0.01,0.37,0.19,1.51,0.27,1.88
										c0.09,0.41,0.24,0.81,0.55,1.1c0.52,0.47,1.34,0.51,2.05,0.34c0.71-0.17,1.34-0.5,2.04-0.71c1.96-0.56,4.09,0,6.12-0.28
										c0.63-0.08,1.25-0.25,1.84-0.47c0.34-0.13,0.53-0.22,0.8-0.46c0.31-0.29,0.43-0.71,0.21-0.91
										C168.39,144.14,163.68,143.96,162.61,144.04"/>
								</g>
							</g>
							<g>
								<g>
									<path class="st16" d="M107.09,127.59c-1.06-1.17-3.07-1.26-4.37-2.22c-1.31-0.96-2.39-2.23-2.77-3.71
										c-0.63-2.38-3.45-4.75-2.3-6.97c0.22-0.41,3.69-1.09,4.85-1.14c0.58-0.03,1.09-0.3,1.67-0.3c3.05,0.01,6.12,0.03,9.17,0.04
										c0.13,0,0.28,0,0.4,0.08c0.13,0.09,0.16,0.25,0.19,0.39c0.28,1.6,0.6,3.4,2.08,4.3c0.94,0.58,2.17,0.63,3.3,0.66
										c1.8,0.04,3.58,0.09,5.38,0.13l6.58,0.75c1.89,0.7,3.27,2.24,4.07,3.95c0.81,1.71,1.11,3.57,1.37,5.41
										c1.28,8.65,1.67,15.47,4.28,23.87c-1.08,0.16-1.18,0.21-2.88,0.14c-0.34-0.01-1.18-0.01-1.65-0.1
										c-0.59-0.12-0.27,0.2-0.34-1.39c-0.09-1.96-0.59-3.88-1.46-5.67c-1.12-2.3-2.55-4.47-3.55-6.81
										c-1.53-3.53-2.06-7.43-1.55-11.19c0.04-0.38,0.09-0.81-0.21-1.08c-0.25-0.21-0.62-0.22-0.96-0.21
										c-2.61,0.1-5.19,0.71-7.54,1.75C120.85,128.25,111.07,131.95,107.09,127.59z"/>
								</g>
								<path class="st17" d="M96.96,111.52c5.07,4.13,15.87,3.91,15.87,3.91l0,0c4-0.7,7.71-1,12.74-1.85
									c1.14-0.24,3.76-0.54,4.91-0.71c1.55-0.21,3.2-0.33,4.6,0.29c0.97,0.43,1.74,1.18,2.46,1.92c7.57,7.76,13.2,16.98,19.96,26
									c0.09,0.12-0.6,0.42-0.97,0.72c-0.22,0.18-0.52,0.43-0.74,0.62c-0.68,0.55-0.83,0.75-0.99,0.97c-0.1,0.13-0.31,0.13-0.41,0
									c-3.01-3.74-5.75-5.73-8.89-8.4c-3.22-2.73-6.67-5.35-8.85-8.83c-1.5-2.4-2.94-5.56-6.53-4.97
									c-0.56,0.09-1.09,0.29-1.59,0.52c-5.66,2.77-8.79,5.87-14.5,7.78c-3.88,1.3-11.12,1.76-14.75-0.07
									c-3.19-1.6-4-4.87-4.25-8.19C94.77,117.95,95.79,114.67,96.96,111.52z"/>
								<g>
									<path class="st16" d="M113.49,114.71c0.09,0.03,0.19,0.05,0.28,0.07c-0.78,0.47-1.62,0.83-2.37,1.34
										c-1.55,1.05-2.6,2.68-4.31,3.52c-0.32,0.16-0.66,0.29-1.03,0.29c-0.37,0-0.74-0.14-0.93-0.43c-0.22-0.35-0.1-0.8,0.12-1.15
										c0.13-0.22,0.31-0.43,0.37-0.68c0.06-0.25-0.07-0.56-0.35-0.62c-0.1-0.03-0.21,0-0.31,0.03c-0.68,0.16-1.27,0.51-1.83,0.89
										c-0.56,0.38-1.09,0.8-1.7,1.1c-0.6,0.31-1.31,0.5-2.01,0.39c-0.68-0.1-1.33-0.58-1.45-1.21c-0.09-0.46,0.12-0.94,0.43-1.33
										c0.31-0.38,0.74-0.66,1.15-0.94c0.24-0.17,0.5-0.42,0.38-0.67c-0.09-0.2-0.38-0.25-0.62-0.28c-0.44-0.04-0.9-0.05-1.3-0.22
										c-0.4-0.17-0.74-0.54-0.69-0.94c0.03-0.18,0.12-0.35,0.24-0.51c0.22-0.31,0.5-0.6,0.88-0.73c0.43-0.14,0.88-0.08,1.34,0
										c1.02,0.17,2.02,0.33,3.04,0.5"/>
								</g>
							</g>
						</g>
						<g>
							<g>
								<path class="st18" d="M103.27,81.93c-0.24,0.21-1.45,0.37-1.74,0.26c-1.76-0.63-3.58-2.57-4.13-4.23
									c-0.55-1.65-0.91-3.19-0.5-4.87c0.29-1.21,1.78-1.72,3.01-2.26c0.38-0.17,0.87-0.24,1.22,0c0.35,0.22,0.44,0.67,0.52,1.06
									C102.19,75.23,102.74,78.58,103.27,81.93"/>
							</g>
							<g>
								<path class="st19" d="M101.54,81.85c-0.25,0.09-0.55-0.05-0.75-0.21c-0.72-0.54-1.19-1.3-1.61-2.06
									c-0.46-0.84-0.86-1.77-0.65-2.69c0.04-0.18,0.13-0.39,0.34-0.46c0.22-0.08,0.47,0.08,0.62,0.25
									c0.28,0.31,0.43,0.7,0.59,1.08c0.41,0.93,0.97,1.82,1.65,2.62"/>
							</g>
							<g>
								<g>
									<path class="st18" d="M97.69,62.24c0.63-0.41,1.39-0.66,2.17-0.77c1.87-0.3,3.86,0.12,5.38,1.15
										c1.17,0.8,2.02,1.98,2.39,3.28c-0.34-0.13-0.69-0.2-1.06-0.22c-2.42-0.18-4.78,0.94-7.2,0.77c-0.9-0.07-1.78-0.3-2.58-0.67
										c-0.35-0.16-0.71-0.35-1.02-0.58C95.97,64.04,96.63,62.91,97.69,62.24z"/>
								</g>
								<g>
									<path class="st19" d="M99.38,66.46c2.42,0.17,4.78-0.97,7.2-0.77c0.35,0.03,0.72,0.09,1.06,0.22
										c0.1,0.38,0.18,0.76,0.19,1.15c0.03,0.7-0.07,1.39-0.18,2.09l-6.73,3.75c-1.34-0.79-2.61-1.71-3.58-2.86
										c-0.97-1.15-1.64-2.56-1.64-4.02c0-0.26,0.03-0.54,0.07-0.8c0.32,0.22,0.66,0.41,1.02,0.58
										C97.59,66.15,98.48,66.4,99.38,66.46z"/>
								</g>
							</g>
							<g>
								<path class="st15" d="M107.75,82.35c-0.63,1.14-0.84,2.8-0.63,4.07c0.21,1.27,0.81,2.2,1.12,3.45
									c0.03,0.1,0.04,0.24-0.03,0.31c-0.07,0.08-0.19,0.1-0.29,0.1c-2.3,0.26-5.49,0.31-7.79,0c0.84-1.71,1.83-3.71,1.76-5.58
									c-0.03-0.93-0.22-1.88-0.5-2.8c-0.43-1.4-1.11-2.72-1.87-3.99"/>
							</g>
							<g>
								<path class="st20" d="M107.33,83.07c-0.15,1.18-0.41,2.44-0.16,3.61c-2.11-0.08-3.82-1.44-4.9-3.1
									c-1.09-1.65-1.65-3.77-2.08-5.66c1.19,0.84,2.67,1.67,4.12,2.06"/>
							</g>
							<g>
								<path class="st15" d="M109.92,71.95c0.34,0.28,0.63,0.58,0.87,0.93c1.18,1.69,0.91,3.9,0.38,5.84
									c-0.47,1.75-1.18,3.52-2.64,4.74c-0.35,0.29-0.75,0.55-1.19,0.7c-0.8,0.25-1.68,0.14-2.43-0.18
									c-0.75-0.33-1.89-1.06-2.45-1.64c-1.52-1.57-2.33-2.55-2.67-4.62c-0.24-1.42,0.21-3.77,1.19-4.87
									c0.43-0.47,1-0.84,1.56-1.18"/>
							</g>
							<path class="st20" d="M110.08,72.82c0,0-0.49,1.48-3.26,1.9c-2.76,0.42-6.4,2.14-6.4,2.14s2.88-4.92,7.02-5.29"/>
							<g>
								<path class="st18" d="M97.61,70.92c1.17-2.01,2.79-3.07,5.3-3.41c0.88-0.12,1.95-0.21,2.99-0.07l0,0
									c3.04-0.05,4.91,1.73,5.75,3.53c1.06,2.28,0.72,5.94-0.58,8.12c0.34-2.73-0.15-4.63-1.21-6.33
									c-0.07,0.09-0.15,0.17-0.22,0.25c-0.46,0.42-1.08,0.66-1.7,0.8c-0.62,0.14-1.27,0.2-1.9,0.3c-2.17,0.35-4.06,1.59-5.71,2.91
									l0,0c-0.09,0.14-0.19,0.3-0.29,0.43c-0.12,0.17-0.27,0.35-0.47,0.43c-0.49,0.21-1.03-0.17-1.36-0.56
									C96.66,75.56,96.44,72.93,97.61,70.92z"/>
							</g>
							<g>
								<g>
									<path class="st15" d="M100.61,77.68c-0.19-0.51-0.47-1.01-0.86-1.43c-0.22-0.25-0.47-0.47-0.8-0.6
										c-0.31-0.13-0.69-0.16-1-0.01c-0.34,0.16-0.53,0.5-0.56,0.84s0.07,0.68,0.22,1c0.37,0.73,1,1.34,1.8,1.71
										c0.31,0.14,0.65,0.25,0.99,0.2C100.75,79.3,101.25,79.05,100.61,77.68"/>
								</g>
								<g>
									<path class="st20" d="M100.08,77.81c-0.1-0.29-0.27-0.55-0.47-0.77c-0.12-0.13-0.27-0.26-0.43-0.33
										c-0.18-0.08-0.38-0.09-0.55-0.01c-0.18,0.09-0.29,0.28-0.31,0.46c-0.01,0.18,0.04,0.37,0.12,0.54
										c0.21,0.39,0.55,0.73,0.97,0.93c0.16,0.08,0.35,0.13,0.55,0.1C100.16,78.69,100.44,78.55,100.08,77.81"/>
								</g>
							</g>
							<path d="M99.89,76.46c0.06,0,0.1,0.01,0.16,0.01c0.37,0.03,0.74,0.05,1.11,0.09c0,0.07-0.01,0.13-0.01,0.2
								c0,0.12,0.01,0.24,0.03,0.34c0.18,0.89,0.96,1.61,1.93,1.78c0.99,0.17,2.02-0.26,2.52-1.06c0.24-0.38,0.34-0.81,0.31-1.25
								c0.34-0.16,0.77-0.14,1.11,0.01c0,0.08-0.01,0.14-0.01,0.22c0,0.12,0.01,0.24,0.03,0.34c0.18,0.89,0.96,1.61,1.93,1.78
								c0.99,0.17,2.02-0.26,2.52-1.06c0.52-0.8,0.4-1.84-0.25-2.53s-1.76-0.96-2.7-0.63c-0.83,0.29-1.42,0.98-1.52,1.78
								c-0.35-0.16-0.77-0.16-1.12-0.01c-0.04-0.43-0.24-0.85-0.56-1.19c-0.65-0.7-1.76-0.96-2.7-0.63c-0.84,0.3-1.42,1-1.53,1.8
								c-0.04,0-0.09-0.01-0.13-0.01c-0.38-0.03-0.77-0.07-1.14-0.09C99.82,76.36,99.83,76.46,99.89,76.46z M107.16,76.82
								c0-0.12,0-0.22,0.01-0.34c0.13-0.87,0.86-1.57,1.78-1.76c0.94-0.2,1.95,0.2,2.45,0.94c0.52,0.75,0.46,1.75-0.15,2.44
								s-1.64,0.97-2.57,0.68C107.81,78.49,107.18,77.69,107.16,76.82z M101.25,76.76c0-0.12,0-0.22,0.01-0.34
								c0.13-0.87,0.86-1.57,1.78-1.76c0.94-0.2,1.95,0.2,2.45,0.94c0.52,0.75,0.46,1.75-0.15,2.44s-1.64,0.97-2.57,0.68
								C101.9,78.42,101.28,77.64,101.25,76.76z"/>
							<g>
								<path class="st20" d="M106.87,76.35c0.01,1.08,0.31,2.1,1,2.9c0.03,0.03,0.01,0.07-0.01,0.09
									c-0.27,0.16-0.63,0.33-0.93,0.39"/>
								<g>
									<path d="M108.02,81.02c-0.49,0.12-1,0.16-1.5,0.16c-0.43,0-0.88-0.07-1.22-0.31c-0.06-0.05-0.16,0.04-0.09,0.09
										c0.35,0.28,0.81,0.34,1.27,0.35c0.53,0.01,1.08-0.04,1.59-0.16C108.14,81.11,108.11,81,108.02,81.02L108.02,81.02z"/>
								</g>
								<g>
									<g>
										<path d="M105.01,77.05c-0.35,0.28-0.9,0.3-1.34,0.21c-0.21-0.04-0.41-0.1-0.6-0.2c-0.18-0.08-0.34-0.2-0.5-0.3
											c-0.07-0.05-0.13,0.05-0.07,0.1c0.18,0.12,0.35,0.24,0.55,0.33c0.21,0.09,0.44,0.16,0.66,0.2
											c0.47,0.08,1.02,0.04,1.39-0.25C105.17,77.08,105.07,76.99,105.01,77.05L105.01,77.05z"/>
									</g>
									<g>
										<path d="M107.9,77.02c0.4,0.29,0.94,0.31,1.43,0.2c0.22-0.05,0.46-0.13,0.66-0.24c0.19-0.09,0.35-0.22,0.52-0.34
											c0.07-0.05-0.03-0.13-0.09-0.09c-0.15,0.12-0.31,0.22-0.49,0.31s-0.38,0.17-0.59,0.21c-0.43,0.1-0.97,0.1-1.34-0.16
											C107.93,76.89,107.84,76.97,107.9,77.02L107.9,77.02z"/>
									</g>
									<g>
										<path class="st21" d="M108.06,75.34c0.46-0.31,1.06-0.41,1.62-0.31c0.59,0.09,1.11,0.37,1.56,0.71
											c0.15,0.12-0.06,0.31-0.22,0.2c-0.78-0.58-1.92-0.96-2.82-0.35C108.06,75.68,107.9,75.44,108.06,75.34L108.06,75.34z"/>
									</g>
									<g>
										<path class="st21" d="M104.91,75.52c-0.46-0.33-1.05-0.42-1.62-0.34c-0.59,0.08-1.12,0.35-1.58,0.68
											c-0.16,0.12,0.06,0.31,0.21,0.21c0.78-0.56,1.93-0.93,2.82-0.3C104.91,75.86,105.07,75.63,104.91,75.52L104.91,75.52z"/>
									</g>
								</g>
								<path class="st22" d="M101.87,79.03c-0.03,0.45,0.47,0.84,1.14,0.88c0.65,0.04,1.21-0.29,1.24-0.73
									c0.03-0.45-0.47-0.84-1.14-0.88C102.46,78.24,101.9,78.58,101.87,79.03z"/>
								<path class="st22" d="M108.53,78.9c0.01,0.45,0.55,0.8,1.21,0.79c0.65-0.01,1.18-0.38,1.17-0.83
									c-0.01-0.45-0.55-0.8-1.21-0.79C109.05,78.08,108.52,78.45,108.53,78.9z"/>
							</g>
						</g>
						<g>
							<g>
								<g>
									<path class="st6" d="M107.78,88.24c1.08,0.72,2.21,1.05,3.6,1.4c0.4,0.1,0.83,0.21,1.14,0.46
										c0.29,0.24,0.47,0.58,0.62,0.91c1.42,3.01,2.26,6.21,3.08,9.38c0.29,1.12,0.59,2.24,0.72,3.39c0.27,2.14,0,4.32-0.58,6.4
										c-0.21,0.77-0.47,1.55-1,2.18c-0.69,0.84-1.8,1.35-2.94,1.59c-1.14,0.24-2.3,0.24-3.47,0.22c-3.6-0.03-7.2-0.05-10.8-0.07
										c-0.15,0-0.31,0-0.44-0.08c-0.12-0.07-0.19-0.18-0.25-0.3c-3.22-5.6-3.5-12.18-3.72-18.5c-0.01-0.49-0.03-0.97,0.12-1.44
										c0.28-0.84,0.01-3.12,0.87-3.53c3.57-1.67,5.58-1.75,6.68-1.97c0.31-0.07,1.17,0.34,2.33,0.46
										C105.33,88.92,106.28,88.71,107.78,88.24"/>
								</g>
								<g>
									<path class="st6" d="M96.5,89.53c-1.46-0.22-2.68,0.3-3.63,1.27c-0.94,0.97-1.71,3.42-2.17,4.62
										c-1.98,5.31-2.83,11.01-1.99,16.52c0.12,0.79,0.31,1.61,0.87,2.26c0.71,0.81,1.93,1.21,3.13,1.29
										c1.19,0.07,2.39-0.16,3.55-0.38c0.55-0.1,1.14-0.22,1.56-0.52c0.38-0.28,0.59-0.67,0.77-1.06c1.19-2.89-0.15-6-1-8.96
										c-1.03-3.6-1.33-7.32-1.64-11.02"/>
								</g>
								<g>
									<path class="st6" d="M110.88,90.39c0.71-0.17,0.44-0.09,1.08-0.41c1.55-0.77,2.49-0.55,3.13-0.28
										c0.63,0.28,1.15,0.72,1.59,1.21c1.3,1.4,2.17,3.1,2.95,4.79c1.37,2.99,2.54,6.06,3.48,9.19c0.22,0.73,0.43,1.48,0.43,2.26
										c0,0.64-0.16,1.27-0.4,1.88c-0.56,1.42-1.61,2.7-3.02,3.46c-1.42,0.77-3.23,0.98-4.76,0.43c-1.46-0.52-2.55-1.64-3.5-2.78"
										/>
								</g>
								<g>
									<path class="st5" d="M97.58,108.84c0.21-6.93-2.37-6.93-3.55-6.4c-0.44,0.2-0.9,0.79-0.71,1.34
										c0.09,0.25,0.28,0.41,0.46,0.54c0.4,0.3,0.78,0.6,1.18,0.91c0.07,0.05,0.15,0.12,0.18,0.21c0.07,0.22-0.12,0.43-0.29,0.54
										c-0.91,0.63-1.78,1.44-2.27,2.61c-0.13,0.31-0.24,0.67-0.21,1.04c0.03,0.35,0.25,0.71,0.53,0.76
										c0.31,0.05,0.71-0.26,0.91,0.04c-0.37,0.46-0.68,0.98-0.93,1.56c-0.15,0.34-0.28,0.72-0.28,1.12
										c-0.01,0.39,0.12,0.83,0.38,1.04c0.21,0.17,0.47,0.18,0.72,0.13c1.03-0.22,1.73-1.4,2.3-2.51
										C96.54,110.8,97.06,109.83,97.58,108.84"/>
								</g>
								<g>
									<path class="st5" d="M115.66,106.15c-1.31-6.84,1.25-7.18,2.51-6.81c0.47,0.14,1.02,0.66,0.9,1.23
										c-0.04,0.25-0.22,0.43-0.37,0.59c-0.34,0.35-0.68,0.7-1.02,1.05c-0.06,0.07-0.12,0.13-0.15,0.24
										c-0.04,0.24,0.19,0.41,0.37,0.5c1,0.5,1.99,1.19,2.67,2.28c0.18,0.3,0.34,0.63,0.37,1c0.03,0.35-0.13,0.73-0.4,0.81
										c-0.31,0.09-0.74-0.17-0.9,0.17c0.44,0.41,0.83,0.89,1.17,1.43c0.21,0.33,0.38,0.68,0.46,1.08
										c0.07,0.39,0.01,0.83-0.22,1.08c-0.18,0.2-0.44,0.24-0.69,0.22c-1.05-0.08-1.93-1.17-2.68-2.18
										C117,107.94,116.34,107.04,115.66,106.15"/>
								</g>
								<g>
									<path class="st5" d="M115.85,106.89c-1.17-6.85-3.72-6.43-4.76-5.71c-0.4,0.28-0.74,0.92-0.43,1.43
										c0.13,0.22,0.35,0.35,0.56,0.46c0.44,0.24,0.88,0.46,1.33,0.7c0.07,0.04,0.16,0.09,0.22,0.18
										c0.12,0.21-0.03,0.45-0.18,0.58c-0.77,0.77-1.47,1.72-1.73,2.95c-0.07,0.33-0.1,0.71,0,1.05c0.1,0.35,0.38,0.66,0.66,0.66
										c0.32,0,0.63-0.38,0.91-0.1c-0.27,0.51-0.47,1.09-0.6,1.69c-0.07,0.37-0.13,0.76-0.06,1.15s0.28,0.79,0.59,0.94
										c0.24,0.13,1.19,0.18,1.45,0.17c1.64-0.13,3.42-0.84,3.79-2.01C117.94,109.97,115.54,107.94,115.85,106.89"/>
								</g>
								<path class="st5" d="M95.95,113.74c0,0,6.83,0.85,8.14-1.39c1.31-2.24,4.35-1.18,5.77-2.36c1.43-1.18-0.65-3.45,0.37-5.22
									c1.02-1.77,0.52-4.59,0.52-4.59L95.95,113.74z"/>
								<g>
									<g>
										<path class="st5" d="M104.63,88.8c0.12,0.31,0.07,0.64,0.06,0.97c-0.01,0.41-0.09,0.8-0.19,1.19
											c-0.13,0.52-0.35,1.05-0.87,1.46c-0.52,0.39-1.4,0.62-2.11,0.41c-0.38-0.12-0.66-0.35-0.91-0.59
											c-0.81-0.79-1.33-1.31-1.68-2.22c-0.04-0.13-0.16-0.56-0.18-0.63c-0.1-0.52-0.01-0.56,0.07-0.6
											c0.69-0.33,1.96-0.76,2.4-0.89c0.86,0.28,2.51,0.87,3.36,0.89"/>
									</g>
									<g>
										<path class="st5" d="M104.58,88.79c-0.1,0.33,0.01,0.71,0.04,1.04c0.04,0.39,0.12,0.8,0.24,1.19
											c0.16,0.51,0.4,1.04,0.93,1.42c0.53,0.38,1.43,0.58,2.14,0.33c0.38-0.13,0.65-0.38,0.88-0.62
											c0.77-0.81,1.25-1.75,1.39-2.7c0.01-0.05,0.01-0.1-0.01-0.16c-0.04-0.07-0.13-0.1-0.21-0.13
											c-0.71-0.31-1.4-0.68-2.33-1.01C106.79,88.45,105.45,88.72,104.58,88.79"/>
									</g>
								</g>
							</g>
							<g>
								<g>
									<path class="st15" d="M119.3,107.92c-0.46-1.46-1.3-2.81-2.14-4.15c-1.4-2.24-2.6-4.2-4-6.44
										c-0.44-0.76-0.43-1.31-0.35-1.76c0.07-0.42,0.53-1.04,0.74-1.42c0.65-1.17,1.19-2.39,1.64-3.63
										c0.07-0.21-0.24-0.39-0.43-0.24c-0.58,0.45-0.94,1.12-1.36,1.69c-0.21,0.29-0.62,0.59-0.93,0.37
										c-0.1-0.08-0.16-0.2-0.21-0.31c-0.69-1.69-1.05-3.36-2.04-4.88c-0.22-0.34-0.63-0.46-0.59-0.07
										c0.12,1.22,0.9,2.59,0.86,3.7c-0.28-0.97-0.96-3.29-1.42-4.03c-0.1-0.16-0.35-0.14-0.43,0.01
										c-0.07,0.17-0.09,0.37-0.06,0.55c0.21,1.25,0.63,2.36,0.87,3.58c-0.38-1.05-0.58-2.24-1.22-3.15
										c-0.13-0.17-0.43-0.1-0.43,0.1c0.01,0.41,0.21,0.85,0.31,1.25c0.22,0.84,0.49,1.19,0.68,2.14
										c-0.31-0.89-0.8-2.31-1.12-2.48c-0.66-0.35,0.15,1.61,0.38,2.4c0.71,2.35,1.87,5.24,2.6,7.61c0.27,1.04,0.5,2.09,0.71,3.14
										c0.38,1.99,0.96,3.83,1.77,5.73c0.81,1.9,1.93,3.9,4.01,4.82c0.5,0.22,1.12,0.38,1.58,0.13c0.24-0.13,0.38-0.34,0.5-0.56
										C119.97,110.72,119.76,109.39,119.3,107.92z"/>
								</g>
								<g>
									<polygon class="st7" points="115.7,86.35 104.91,83.96 104.52,92.86 									"/>
									<polygon class="st11" points="122.92,84.29 122.18,84.01 115.7,86.35 104.15,85.6 103.61,86.02 115.92,87.29 									"/>
									<g>
										<path class="st13" d="M116.38,86.52l6.55-2.34c0.13-0.05,0.27,0.05,0.25,0.18l-1.8,12.55c-0.03,0.18-0.16,0.34-0.34,0.43
											l-5.9,2.57"/>
										<path class="st23" d="M114.85,86.55c0,0,0.96,0.42,1.52-0.03l-1.25,13.38c0,0-0.37,0.59-1.45,0.03L114.85,86.55z"/>
										<path class="st13" d="M114.85,86.55l-11.08-0.66c-0.29-0.01-0.55,0.18-0.55,0.46l-0.4,12.66
											c-0.01,0.31,0.27,0.59,0.62,0.6l10.25,0.31L114.85,86.55z"/>
									</g>
								</g>
								<g>
									<path class="st15" d="M96.99,109.34c1.02-1.21,2.35-2.17,3.67-3.12c2.21-1.6,4.13-3.02,6.34-4.62
										c0.72-0.55,0.94-1.08,1.05-1.52c0.1-0.42-0.06-1.14-0.1-1.56c-0.13-1.3-0.13-2.62-0.03-3.92c0.01-0.22,0.37-0.28,0.49-0.08
										c0.35,0.6,0.43,1.35,0.58,2.03c0.07,0.34,0.34,0.76,0.71,0.67c0.13-0.04,0.24-0.13,0.32-0.21
										c1.33-1.34,2.33-2.76,3.88-3.84c0.35-0.24,0.77-0.21,0.58,0.13c-0.62,1.09-1.89,2.1-2.3,3.14c0.65-0.8,2.23-2.73,2.95-3.25
										c0.15-0.1,0.4-0.01,0.38,0.16c0,0.17-0.06,0.37-0.16,0.52c-0.69,1.08-1.55,1.98-2.27,3.03c0.78-0.85,1.45-1.89,2.43-2.51
										c0.19-0.12,0.44,0.05,0.35,0.24c-0.18,0.37-0.53,0.72-0.8,1.06c-0.55,0.71-0.94,0.94-1.5,1.76
										c0.65-0.72,1.68-1.88,2.05-1.93c0.77-0.1-0.8,1.44-1.34,2.1c-1.62,1.94-3.88,4.23-5.52,6.18
										c-0.66,0.88-1.33,1.76-1.95,2.66c-1.17,1.72-2.45,3.23-3.98,4.72c-1.53,1.5-3.39,2.97-5.69,3.11
										c-0.55,0.04-1.19-0.03-1.52-0.41c-0.16-0.2-0.22-0.45-0.24-0.7C95.23,111.7,95.95,110.53,96.99,109.34z"/>
								</g>
							</g>
						</g>
					</g>
				</g>
			</g>
		</g>
	</g>
	<polyline class="st5" points="65.61,164.07 65.47,176.15 69.43,177.05 68.59,164.6 	"/>
	<rect x="151.1" y="64.24" class="st24" width="93.45" height="22.47"/>
	<text transform="matrix(1.096 0 0 1 155.2854 76.7815)" class="st25 st26 st27">Disciplina</text>
</g>
</svg>
